<svg xmlns="http://www.w3.org/2000/svg" viewBox="0 0 120 32" width="120" height="32">
  <g>
    <path d="M21.55 13.18a5.46 5.46 0 0 0-.47-4.49 5.53 5.53 0 0 0-5.96-2.65 5.5 5.5 0 0 0-4.15-1.85 5.53 5.53 0 0 0-5.27 3.83 5.47 5.47 0 0 0-3.65 2.65 5.53 5.53 0 0 0 .68 6.49 5.46 5.46 0 0 0 .47 4.49 5.53 5.53 0 0 0 5.96 2.65 5.5 5.5 0 0 0 4.15 1.85 5.53 5.53 0 0 0 5.27-3.83 5.47 5.47 0 0 0 3.65-2.65 5.53 5.53 0 0 0-.68-6.49zm-8.21 11.5a4.1 4.1 0 0 1-2.63-.95l.13-.07 4.4-2.54a.72.72 0 0 0 .36-.63v-6.21l1.86 1.07.02.04v5.13a4.13 4.13 0 0 1-4.14 4.16zm-8.9-3.8a4.1 4.1 0 0 1-.49-2.76l.13.08 4.4 2.54a.72.72 0 0 0 .73 0l5.37-3.1v2.15a.06.06 0 0 1-.03.05L10.5 22.5a4.13 4.13 0 0 1-5.66-1.51zm-1.16-9.6a4.1 4.1 0 0 1 2.15-1.81v5.23a.71.71 0 0 0 .36.62l5.34 3.08-1.86 1.07a.07.07 0 0 1-.06 0L4.78 17.4a4.13 4.13 0 0 1-1.5-5.7zm15.27 3.55l-5.36-3.1L15.05 11a.07.07 0 0 1 .06 0l4.45 2.57a4.14 4.14 0 0 1-.62 7.46v-5.23a.7.7 0 0 0-.39-.62zM20.4 11.4l-.13-.08-4.4-2.54a.71.71 0 0 0-.73 0l-5.37 3.1V9.74a.06.06 0 0 1 .03-.05l4.45-2.57a4.13 4.13 0 0 1 6.14 4.27zm-11.6 4.79l-1.86-1.07a.05.05 0 0 1-.03-.05V9.94a4.13 4.13 0 0 1 6.78-3.16l-.13.07-4.4 2.54a.72.72 0 0 0-.36.63zm1.01-2.18l2.4-1.38 2.4 1.38v2.76l-2.4 1.38-2.4-1.38z" fill="#181818"/>
    <text x="28" y="22" font-family="Inter, system-ui, sans-serif" font-size="14" font-weight="700" letter-spacing="0.3" fill="#181818">OpenAI</text>
  </g>
</svg>
