<svg xmlns="http://www.w3.org/2000/svg" width="135.088" height="27.25" viewBox="0 0 135.088 27.25">
  <g id="Group_1510" data-name="Group 1510" transform="translate(-308.557 -194.429)">
    <path id="Path_1687" data-name="Path 1687" d="M510.954,206.365H499.686a7.944,7.944,0,0,0-7.533,6.353l-1.3,7.371a5.207,5.207,0,0,0,5.292,6.352h11.268a7.943,7.943,0,0,0,7.532-6.352l1.3-7.371a5.208,5.208,0,0,0-5.292-6.353m-2.42,13.724H497.266l1.3-7.371h11.268Z" transform="translate(-72.699 -4.763)" fill="#31006f"/>
    <path id="Path_1688" data-name="Path 1688" d="M430.8,206.365H422.5a7.908,7.908,0,0,0-7.473,6.353l-2.42,13.724h6.353l2.419-13.724h8.292Z" transform="translate(-41.519 -4.763)" fill="#31006f"/>
    <path id="Path_1689" data-name="Path 1689" d="M464.9,202.147H453.712l1.121-6.352H448.5l-1.12,6.352-1.12,6.353-1.3,7.371a5.176,5.176,0,0,0,5.214,6.352h11.191a7.9,7.9,0,0,0,7.453-6.352l1.3-7.371a5.176,5.176,0,0,0-5.212-6.353m-2.42,13.724H451.293l1.3-7.371h11.191Z" transform="translate(-54.387 -0.545)" fill="#31006f"/>
    <path id="Path_1690" data-name="Path 1690" d="M394.882,206.365h-6.353l-2.42,13.724H375.074l2.42-13.724h-6.361l-1.12,6.353h.008l-1.3,7.371a5.184,5.184,0,0,0,5.233,6.352h11.035a7.907,7.907,0,0,0,7.473-6.352l1.726-9.789a7.2,7.2,0,0,1,1.709-3.49v-.445Z" transform="translate(-23.967 -4.763)" fill="#31006f"/>
    <path id="Path_1691" data-name="Path 1691" d="M353.841,208.435l1.109-6.291h-8.7l1.12-6.349H341.02l-3.48,19.736-.065.372a5.158,5.158,0,0,0,5.206,6.321h8.728l1.12-6.352h-8.7l1.311-7.437Z" transform="translate(-11.499 -0.545)" fill="#31006f"/>
    <path id="Path_1692" data-name="Path 1692" d="M308.557,212.718h15.049l1.12-6.353H309.677Z" transform="translate(0 -4.763)" fill="#e80505"/>
    <path id="Path_1693" data-name="Path 1693" d="M530.213,196.717a2.351,2.351,0,1,1-2.343-2.288,2.3,2.3,0,0,1,2.343,2.288m-4.114,0a1.772,1.772,0,0,0,1.67,1.824,1.8,1.8,0,0,0,1.856-1.712,1.768,1.768,0,1,0-3.526-.112m1.41,1.2h-.531V195.63a4.6,4.6,0,0,1,.879-.071,1.43,1.43,0,0,1,.794.168.634.634,0,0,1,.223.5.583.583,0,0,1-.473.529v.029a.676.676,0,0,1,.418.558,1.744,1.744,0,0,0,.168.572h-.573a1.992,1.992,0,0,1-.182-.559c-.041-.251-.18-.362-.473-.362h-.251Zm.013-1.3h.251c.294,0,.531-.1.531-.334,0-.209-.153-.349-.489-.349a1.33,1.33,0,0,0-.293.027Z" transform="translate(-86.568 0)" fill="#31006f"/>
  </g>
</svg>
